<?xml version="1.0" encoding="UTF-8"?>
<svg width="115px" height="120px" viewBox="0 0 115 120" version="1.1" xmlns="http://www.w3.org/2000/svg" xmlns:xlink="http://www.w3.org/1999/xlink">
    <!-- Generator: Sketch 41 (35326) - http://www.bohemiancoding.com/sketch -->
    <title>Interview_badge</title>
    <desc>Created with Sketch.</desc>
    <defs></defs>
    <g id="Page-1" stroke="none" stroke-width="1" fill="none" fill-rule="evenodd">
        <g id="Interview_badge">
            <path d="M0,27.9141562 C0,95.3759039 56.0491065,117.621642 56.9929694,117.993911 C57.9526511,117.621642 114,95.3759039 114,27.9141562 L57.0070306,0.00608852689 L0,27.9141562 Z" id="Fill-1" fill="#AE94E4"></path>
            <path d="M57.4354295,78.3950802 L114.86466,29.422152 C114.869088,28.9917421 114.880599,28.5674684 114.880599,28.1326756 L113.171607,27.2964006 L57.4354295,74.8255712 L57.4354295,78.3950802 Z M57.4354295,85.5323452 L114.558282,36.8215199 C114.648601,35.5890224 114.716784,34.3372397 114.769913,33.0714315 L57.4354295,81.9628361 L57.4354295,85.5323452 Z M57.4354295,71.8205915 L110.933978,26.1997759 L108.275742,24.8980271 L57.4354295,68.251959 L57.4354295,71.8205915 Z M57.4354295,65.0585107 L105.89732,23.7321511 L103.239084,22.431279 L57.4354295,61.4890016 L57.4354295,65.0585107 Z M57.4354295,106.00618 L109.775759,61.3732906 C110.290228,59.8103155 110.772819,58.2122764 111.219105,56.5739138 L57.4354295,102.437547 L57.4354295,106.00618 Z M57.4354295,57.9212457 L100.580848,21.127777 L97.9226123,19.8269048 L57.4354295,54.3517366 L57.4354295,57.9212457 Z M57.4354295,113.919234 L104.825879,73.5062904 C105.74236,71.6443952 106.611024,69.7141253 107.430986,67.7172339 L57.4354295,110.351478 L57.4354295,113.919234 Z M57.4354295,92.6696102 L113.686076,44.7021404 C113.879997,43.3837362 114.057095,42.0504299 114.205857,40.6899491 L57.4354295,89.1001011 L57.4354295,92.6696102 Z M57.4354295,99.431691 L112.171005,52.7563274 C112.49775,51.3362378 112.801473,49.8916035 113.074203,48.4171648 L57.4354295,95.8630585 L57.4354295,99.431691 Z M57.4354295,9.46025099 L64.484802,3.44853849 L61.8265661,2.14678972 L57.4354295,5.8916185 L57.4354295,9.46025099 Z M57.4354295,16.2223318 L69.5205742,5.91616326 L66.8641092,4.61441449 L57.4354295,12.6536993 L57.4354295,16.2223318 Z M57.4416279,118.917599 L57.4416279,118.923735 L57.4487118,118.920229 L57.4557957,118.923735 L57.4557957,118.917599 C57.6337788,118.847471 59.7554089,118.005937 63.0857305,116.239591 L95.5441906,88.5592398 C97.5090892,85.9592487 99.4058052,83.1637761 101.196263,80.1719454 L57.4354295,117.488743 L57.4354295,118.914969 L57.4416279,118.917599 Z M57.4354295,22.7959439 L74.4182101,8.31453675 L71.7599741,7.01191138 L57.4354295,19.2273114 L57.4354295,22.7959439 Z M57.4354295,2.32210942 L59.1683301,0.845040952 L57.4549102,0.00613618948 L57.4549102,0 L57.4416279,0 L57.4416279,0.00613618948 L57.4354295,0.00964258347 L57.4354295,2.32210942 Z M57.4354295,37.6350033 L85.4708754,13.7284091 L82.8126395,12.4257837 L57.4354295,34.0663708 L57.4354295,37.6350033 Z M57.4354295,44.3962075 L90.507533,16.1951572 L87.8492971,14.8925319 L57.4354295,40.8284516 L57.4354295,44.3962075 Z M57.4354295,30.4977383 L80.1544035,11.1240349 L77.4961675,9.82140957 L57.4354295,26.9291058 L57.4354295,30.4977383 Z M57.4354295,50.9724494 L95.4042835,18.5935307 L92.7460475,17.291782 L57.4354295,47.4020638 L57.4354295,50.9724494 Z" id="Combined-Shape" fill="#A084D9"></path>
            <path d="M21,34.0082804 C21,30.6899988 23.6880479,28 27.0003185,28 L65.9996815,28 C69.3135659,28 72,30.6806279 72,34.0082804 L72,60.9917196 C72,64.3100012 69.3119521,67 65.9996815,67 L27.0003185,67 C23.6864341,67 21,64.3193721 21,60.9917196 L21,34.0082804 Z M45,67 L30,75 L35,67 L45,67 Z" id="Combined-Shape" fill="#FFE345"></path>
            <rect id="Rectangle-5" fill="#7965C8" x="27" y="35" width="38" height="3" rx="1.5"></rect>
            <rect id="Rectangle-5-Copy" fill="#7965C8" x="27" y="45" width="28" height="3" rx="1.5"></rect>
            <rect id="Rectangle-5-Copy-2" fill="#7965C8" x="27" y="55" width="18" height="3" rx="1.5"></rect>
            <path d="M77.7446953,82.0638375 L87,87 L84.5255779,77.9271189 C87.901642,74.6552782 90,70.072688 90,65 C90,55.0588745 81.9411255,47 72,47 C62.0588745,47 54,55.0588745 54,65 C54,74.9411255 62.0588745,83 72,83 C74.0087359,83 75.9406203,82.6709598 77.7446953,82.0638375 Z" id="Combined-Shape" fill="#7965C8"></path>
            <rect id="Rectangle-5-Copy-3" fill="#FFE345" x="63" y="57" width="18" height="3" rx="1.5"></rect>
            <rect id="Rectangle-5-Copy-5" fill="#FFE345" x="63" y="69" width="16" height="3" rx="1.5"></rect>
            <rect id="Rectangle-5-Copy-4" fill="#FFE345" x="63" y="63" width="11" height="3" rx="1.5"></rect>
            <path d="M57.5070923,0.00619172226 L57.5070923,0 L57.4929077,0 L57.4929077,0.00619172226 L0,28.3872775 C0,96.9924446 56.5407654,119.615229 57.4929077,119.993808 L57.4929077,120 L57.5,119.996462 L57.5070923,120 L57.5070923,119.993808 C58.4610077,119.615229 115,96.9924446 115,28.3872775 L57.5070923,0.00619172226 M57.5070535,114.996467 L57.5070535,115 L57.4911831,115 L57.4911831,114.996467 C56.623604,114.649378 5,93.9061421 5,31.0246487 L57.4911831,5.00618226 L57.4911831,5 L57.5,5.00264954 L57.5070535,5 L57.5070535,5.00618226 L110,31.0246487 C110,93.9061421 58.376396,114.649378 57.5070535,114.996467" id="Fill-20" fill="#4E629E"></path>
        </g>
    </g>
</svg>