<svg width="116" height="120" viewBox="0 0 116 120" xmlns="http://www.w3.org/2000/svg"><g fill="none" fill-rule="evenodd"><path d="M57.507.006V0h-.014v.006L1 27.914c0 67.462 55.557 89.708 56.493 90.08V118l.007-.003.007.003v-.006c.937-.372 56.493-22.618 56.493-90.08L57.507.006" fill="#7C42BA"/><path d="M10.417 33.674H5.11v-5.292h5.307v5.292zm-.26 15.188h-4.79v-4.776h4.79v4.776zM9.9 64.05H5.626v-4.26H9.9v4.26zm6.342-36.183h-5.308v-5.29h5.308v5.29zm-.258 15.188h-4.79V38.28h4.79v4.775zm-.26 15.188h-4.273v-4.26h4.275v4.26zm-.257 15.188H11.71v-3.744h3.757v3.745zm6.6-39.756H16.76v-5.292h5.308v5.292zm-.258 15.188h-4.792v-4.776h4.79v4.776zm-.26 15.188h-4.274v-4.26h4.275v4.26zm-.258 15.188h-3.757v-3.745h3.757v3.745zm6.6-51.37h-5.307v-5.292h5.308v5.29zm-.257 15.187h-4.79V38.28h4.79v4.775zm-.26 15.188h-4.273v-4.26h4.274v4.26zm-.258 15.188H23.36v-3.744h3.757v3.745zm-.258 15.19h-3.24v-3.23h3.24v3.23zm7.117-70.13h-4.274v-4.81h4.274v4.81zm-.26 15.184H28.41v-5.292h5.308v5.292zm-.257 15.188h-4.79v-4.776h4.79v4.776zM33.2 64.05h-4.273v-4.26H33.2v4.26zm-.257 15.188h-3.757v-3.745h3.757v3.745zm-.26 15.187h-3.24v-3.23h3.24v3.23zm6.86-66.558h-5.307v-5.29h5.308v5.29zm-.258 15.188h-4.79V38.28h4.79v4.775zm-.258 15.188h-4.274v-4.26h4.274v4.26zm-.26 15.188h-3.756v-3.744h3.758v3.745zm-.257 15.19h-3.24v-3.23h3.24v3.23zm-.26 15.187H35.53v-2.714h2.723v2.714zm7.378-85.32h-5.825v-5.808h5.825v5.806zm-.26 15.187h-5.307v-5.292h5.31v5.292zm-.257 15.188h-4.79v-4.776h4.79v4.776zm-.258 15.188h-4.274v-4.26h4.274v4.26zm-.258 15.188h-3.757v-3.745h3.757v3.745zm-.26 15.187h-3.24v-3.23h3.24v3.23zm-.258 15.188h-2.722V106.9h2.722v2.713zm7.377-96.934h-5.825V6.872h5.825v5.806zm-.258 15.187h-5.31v-5.29h5.31v5.29zm-.26 15.188h-4.79V38.28h4.79v4.775zm-.258 15.188h-4.274v-4.26h4.274v4.26zM50.42 73.43H46.66v-3.744h3.757v3.745zm-.26 15.19h-3.24v-3.23h3.24v3.23zm-.258 15.187H47.18v-2.714H49.9v2.714zm7.377-85.32h-5.827v-5.808h5.826v5.806zm-.26 15.187h-5.308v-5.292h5.308v5.292zm-.26 15.188h-4.79v-4.776h4.79v4.776zm-.257 15.188H52.23v-4.26h4.273v4.26zm-.26 15.188h-3.756v-3.745h3.757v3.745zm-.257 15.187h-3.24v-3.23h3.24v3.23zm-.26 15.188h-2.722V106.9h2.723v2.713zm7.378-96.934H57.28V6.872h5.824v5.806zm-.26 15.187h-5.307v-5.29h5.308v5.29zm-.257 15.188h-4.79V38.28h4.79v4.775zm-.26 15.188h-4.273v-4.26h4.274v4.26zM62.07 73.43h-3.757v-3.744h3.757v3.745zm-.26 15.19h-3.24v-3.23h3.24v3.23zm-.257 15.187H58.83v-2.714h2.723v2.714zm7.376-85.32h-5.826v-5.808h5.825v5.806zm-.26 15.187h-5.308v-5.292h5.31v5.292zm-.258 15.188h-4.79v-4.776h4.79v4.776zm-.258 15.188H63.88v-4.26h4.274v4.26zm-.26 15.188H64.14v-3.745h3.757v3.745zm-.258 15.187h-3.24v-3.23h3.24v3.23zm-.258 15.188h-2.723V106.9h2.723v2.713zm5.826-96.934H68.93V6.872h4.274v5.806zm1.292 15.187h-5.308v-5.29h5.308v5.29zm-.26 15.188h-4.79V38.28h4.79v4.775zm-.257 15.188h-4.275v-4.26h4.274v4.26zm-.26 15.188h-3.757v-3.744h3.757v3.745zm-.258 15.19h-3.24v-3.23h3.24v3.23zm-.26 15.187h-2.72v-2.714h2.72v2.714zm7.378-85.32h-5.825v-5.808h5.825v5.806zm-.26 15.187h-5.307v-5.292h5.308v5.292zm-.257 15.188h-4.79v-4.776h4.79v4.776zm-.26 15.188H75.53v-4.26h4.274v4.26zm-.257 15.188H75.79v-3.745h3.756v3.745zm-.26 15.187h-3.24v-3.23h3.24v3.23zm6.86-66.558H80.84v-5.29h5.31v5.29zm-.258 15.188h-4.79V38.28h4.79v4.775zm-.258 15.188h-4.275v-4.26h4.275v4.26zm-.26 15.188h-3.756v-3.744h3.757v3.745zm-.257 15.19h-3.24v-3.23h3.24v3.23zm6.86-54.946h-5.31v-5.292h5.31v5.292zm-.26 15.188h-4.79v-4.776h4.79v4.776zm-.258 15.188H87.18v-4.26h4.275v4.26zm-.26 15.188H87.44v-3.745h3.756v3.745zm-.257 15.187h-3.24v-3.23h3.24v3.23zm6.86-66.558h-5.31v-5.29h5.31v5.29zm-.26 15.188h-4.79V38.28h4.79v4.775zm-.258 15.188h-4.274v-4.26h4.274v4.26zm-.258 15.188h-3.757v-3.744h3.757v3.745zm-.26 15.19h-3.24v-3.23h3.24v3.23zm6.86-54.946h-5.307v-5.292h5.308v5.292zm-.258 15.188h-4.79v-4.776h4.79v4.776zm-.258 15.188h-4.274v-4.26h4.274v4.26zm-.26 15.188H99.09v-3.745h3.757v3.745zm6.344-36.183h-4.79V38.28h4.79v4.775zm-.26 15.188h-4.273v-4.26h4.274v4.26zm6.344-24.57h-5.31v-5.29h5.31v5.29z" fill="#6737A5"/><path fill="#FFE345" d="M57.5 57.252L46.684 64l2.94-12.592L40 42.988l12.633-1.036L57.5 30l4.867 11.952L75 42.987l-9.625 8.42L68.315 64M84.5 68.634L77.393 73l1.932-8.148L73 59.402l8.302-.668L84.5 51l3.198 7.734 8.302.67-6.325 5.448L91.607 73M30.5 68.634L23.393 73l1.932-8.148L19 59.402l8.302-.668L30.5 51l3.198 7.734 8.302.67-6.325 5.448L37.607 73"/><path d="M57.507.006V0h-.014v.006L0 28.386c0 68.606 56.54 91.23 57.493 91.608V120l.007-.004.007.004v-.006C58.46 119.614 115 96.992 115 28.387L57.507.007m0 114.99V115h-.016v-.004C56.625 114.65 5 93.906 5 31.026l52.49-26.02V5l.01.003.007-.003v.006L110 31.026c0 62.88-51.624 83.623-52.493 83.97" fill="#612C99"/></g></svg>