<svg width="115" height="120" viewBox="0 0 115 120" xmlns="http://www.w3.org/2000/svg"><g fill="none" fill-rule="evenodd"><path d="M115 28.152c0 68.03-56.05 90.466-56.993 90.84C57.047 118.62 1 96.183 1 28.153L57.993.007 115 28.152z" fill="#3498DB"/><path d="M57.493.007V0h.015v.007L115 28.387c0 68.605-56.54 91.227-57.492 91.606V120s-.004-.004-.008-.004c-.003 0-.007.004-.007.004v-.007C56.54 119.613 0 96.993 0 28.388L57.493.008zm0 114.99V115h.015v-.003c.87-.35 52.492-21.09 52.492-83.972L57.508 5.005V5l-.008.003L57.494 5v.005L5 31.025c0 62.88 51.623 83.623 52.494 83.972z" fill="#1478BA"/><path d="M57.85 84.692c-2.755-.502-5.787-1.267-8.695-2.435-.32-.12-.688-.273-1.102-.46.38-.242.898-.665 1.188-1.333.502-1.15-.086-2.076-.086-2.076s-1.118.302-1.63 1.512c-.268.63-.235 1.185-.147 1.578-.544-.27-1.14-.59-1.78-.977.337-.253.832-.73 1.036-1.452.33-1.16-.35-2.013-.35-2.013s-1.028.39-1.362 1.606c-.16.587-.082 1.096.038 1.464-.537-.346-1.095-.73-1.673-1.165.363-.256 1.058-.853 1.3-1.824.34-1.358-.473-2.336-.473-2.336s-1.167.47-1.507 1.893c-.187.777-.026 1.426.153 1.858-.668-.53-1.353-1.124-2.044-1.788.442-.195 1.205-.628 1.67-1.456.695-1.23.164-2.324.164-2.324s-1.265.223-1.982 1.52c-.38.685-.408 1.32-.353 1.767-.586-.59-1.172-1.23-1.754-1.923.496-.137 1.36-.467 2-1.235.96-1.15.632-2.34.632-2.34s-1.35.036-2.345 1.253c-.547.664-.694 1.328-.722 1.792-.08-.1-.16-.196-.237-.297-.32-.407-.6-.82-.857-1.24.52-.143 1.406-.486 2.063-1.268 1.003-1.19.674-2.436.674-2.436s-1.398.027-2.44 1.287c-.486.59-.67 1.18-.734 1.644-.328-.626-.594-1.257-.807-1.88.53-.094 1.522-.36 2.31-1.137 1.145-1.13.942-2.42.942-2.42s-1.426-.088-2.616 1.11c-.54.538-.788 1.096-.91 1.552-.198-.734-.332-1.454-.413-2.14.56-.04 1.54-.203 2.407-.848 1.318-.98 1.316-2.283 1.316-2.283s-1.407-.254-2.786.79c-.507.38-.83.803-1.036 1.185-.033-.687-.022-1.325.013-1.895.565-.018 1.488-.147 2.34-.708 1.366-.9 1.455-2.183 1.455-2.183s-1.366-.326-2.796.63c-.356.238-.63.498-.84.755.08-.54.166-.92.21-1.09.472-.114 1.305-.4 1.953-1.13.96-1.083.722-2.26.722-2.26s-1.26-.022-2.26 1.123c-.202.228-.342.46-.457.684-.014-.24-.06-.496-.17-.762-.488-1.16-1.713-1.526-1.713-1.526s-.7.86-.185 2.07c.38.895 1.165 1.353 1.537 1.527-.015.053-.114.43-.214 1.05-.073-.25-.174-.508-.338-.767-.85-1.342-2.413-1.575-2.413-1.575s-.648 1.182.248 2.576c.717 1.114 1.885 1.518 2.308 1.634-.023.455-.032.95-.015 1.476-.126-.326-.313-.667-.61-.993-1.073-1.177-2.61-1.167-2.61-1.167s-.39 1.247.732 2.466c.97 1.055 2.286 1.23 2.61 1.256.07.572.176 1.166.322 1.772-.218-.34-.52-.695-.96-.994-1.33-.905-2.755-.567-2.755-.567s-.02 1.285 1.365 2.22c1.142.77 2.352.706 2.734.66.158.46.342.925.558 1.388-.18-.157-.38-.31-.623-.445-1.367-.762-2.656-.375-2.656-.375s.154 1.176 1.578 1.963c1.12.62 2.188.54 2.59.48.22.335.454.67.71 1-.398-.254-.903-.492-1.512-.61-1.675-.332-2.752.494-2.752.494s.68 1.163 2.415 1.504c1.312.258 2.3-.133 2.707-.34.543.64 1.09 1.235 1.635 1.785-.564-.247-1.414-.514-2.415-.455-1.784.106-2.564 1.167-2.564 1.167s1.083.94 2.935.836c1.406-.08 2.258-.704 2.593-1.007.65.628 1.298 1.192 1.93 1.7-.553-.242-1.348-.487-2.284-.453-1.787.065-2.608 1.085-2.608 1.085s1.045.953 2.896.89c1.51-.05 2.4-.725 2.685-.98.637.48 1.252.9 1.84 1.27-.575-.17-1.38-.31-2.273-.176-1.732.267-2.373 1.368-2.373 1.368s1.168.82 2.97.55c1.447-.215 2.21-.965 2.463-1.262.482.284.942.53 1.37.744.03.02.06.046.09.066-.58-.04-1.326-.004-2.076.283-1.57.598-1.867 1.8-1.867 1.8s1.344.575 2.98-.042c1.108-.413 1.645-1.102 1.886-1.515 2.707 1.08 5.27 1.945 7.715 2.628-2.296.316-4.264.452-5.608.51-.328.197-.5 1.247-.337 1.4 2.584-.22 5.295-.645 8.175-1.33 2.963.716 5.748 1.158 8.4 1.384.16-.152-.01-1.204-.338-1.4-1.394-.06-3.46-.204-5.867-.546 2.522-.694 5.17-1.583 7.974-2.7.24.414.778 1.1 1.886 1.516 1.636.616 2.98.04 2.98.04s-.298-1.202-1.868-1.8c-.75-.285-1.496-.32-2.076-.28.03-.023.06-.046.09-.067.428-.216.887-.462 1.37-.745.252.297 1.016 1.047 2.464 1.264 1.8.27 2.97-.552 2.97-.552s-.642-1.102-2.374-1.368c-.894-.135-1.698.007-2.273.178.588-.372 1.203-.792 1.84-1.273.286.256 1.175.93 2.685.98 1.85.064 2.896-.89 2.896-.89s-.822-1.02-2.607-1.083c-.936-.035-1.73.21-2.283.452.632-.508 1.28-1.073 1.93-1.698.334.302 1.186.926 2.592 1.007 1.85.105 2.934-.837 2.934-.837s-.78-1.06-2.564-1.168c-1.002-.058-1.852.21-2.415.457.545-.55 1.092-1.143 1.635-1.785.408.208 1.395.6 2.707.34 1.735-.34 2.415-1.503 2.415-1.503s-1.077-.827-2.752-.497c-.61.12-1.114.358-1.513.61.257-.328.492-.664.71-1 .403.06 1.47.142 2.59-.48 1.424-.785 1.58-1.962 1.58-1.962s-1.29-.385-2.656.376c-.243.135-.44.288-.623.445.216-.462.4-.925.56-1.385.38.044 1.59.108 2.733-.663 1.383-.934 1.365-2.218 1.365-2.218s-1.426-.34-2.756.565c-.44.3-.742.654-.96.994.147-.607.252-1.2.323-1.77.324-.028 1.64-.203 2.61-1.258 1.122-1.22.73-2.467.73-2.467s-1.535-.01-2.61 1.168c-.295.325-.482.666-.608.99.017-.525.007-1.018-.016-1.474.422-.115 1.59-.52 2.306-1.634.897-1.393.25-2.575.25-2.575s-1.563.232-2.414 1.574c-.164.258-.265.516-.34.766-.098-.62-.197-.997-.21-1.048.37-.175 1.155-.633 1.536-1.528.515-1.21-.186-2.07-.186-2.07s-1.224.367-1.71 1.527c-.112.265-.16.52-.172.76-.115-.223-.255-.454-.456-.683-1-1.145-2.26-1.123-2.26-1.123s-.24 1.178.72 2.26c.648.73 1.482 1.017 1.954 1.13.044.172.13.552.21 1.092-.21-.257-.484-.518-.84-.756-1.43-.956-2.796-.63-2.796-.63s.088 1.284 1.454 2.183c.852.56 1.776.687 2.34.707.036.57.047 1.207.012 1.893-.206-.38-.528-.803-1.035-1.186-1.38-1.043-2.787-.787-2.787-.787s-.002 1.304 1.317 2.283c.867.645 1.847.81 2.408.848-.08.687-.214 1.406-.414 2.14-.12-.455-.37-1.015-.908-1.553-1.19-1.196-2.616-1.11-2.616-1.11s-.203 1.29.942 2.42c.788.777 1.78 1.045 2.31 1.137-.213.625-.48 1.255-.807 1.88-.065-.462-.25-1.055-.735-1.643-1.04-1.26-2.44-1.29-2.44-1.29s-.328 1.248.675 2.438c.657.783 1.542 1.125 2.062 1.268-.257.418-.54.834-.858 1.24-.078.102-.16.198-.238.297-.027-.465-.174-1.127-.72-1.792-.996-1.216-2.346-1.252-2.346-1.252s-.328 1.19.632 2.34c.64.768 1.504 1.097 2 1.234-.58.695-1.167 1.334-1.753 1.924.054-.448.026-1.082-.354-1.77-.716-1.295-1.982-1.518-1.982-1.518s-.53 1.095.165 2.325c.466.828 1.228 1.26 1.67 1.455-.69.664-1.375 1.26-2.043 1.79.18-.433.34-1.082.153-1.858-.34-1.423-1.507-1.893-1.507-1.893s-.812.977-.473 2.335c.242.972.936 1.568 1.3 1.824-.578.434-1.136.82-1.673 1.164.12-.367.196-.876.037-1.463-.335-1.217-1.363-1.606-1.363-1.606s-.682.854-.35 2.015c.204.722.698 1.198 1.036 1.452-.64.385-1.236.708-1.78.977.088-.392.12-.95-.146-1.577-.514-1.21-1.63-1.514-1.63-1.514s-.59.925-.09 2.077c.29.668.81 1.092 1.19 1.333-.414.187-.784.34-1.102.46-3.014 1.21-6.162 1.99-8.995 2.49z" fill="#FFF"/><path fill="#FFF" d="M33.864 41.88L30 36l21.565 3.685L58 63.995l6.437-24.31L86 36l-3.862 5.88-13.436 1.805-1.668 5.232 8.587-.843-2.814 4.704-7.213.662L58.01 77l-7.602-23.56-7.212-.662-2.816-4.704 8.59.843-1.67-5.232-13.436-1.804"/></g></svg>